<mxfile host="app.diagrams.net" modified="2024-01-15T16:45:18.121Z" agent="Mozilla/5.0 (Macintosh; Intel Mac OS X 10_15_7) AppleWebKit/537.36 (KHTML, like Gecko) Chrome/120.0.0.0 Safari/537.36" etag="UjsCef6Zbf_C3NLGYp2s" version="22.1.18" type="github">
  <diagram name="PÃ¡gina-1" id="j-4z2RN7eHjvvUNS7-LT">
    <mxGraphModel dx="1656" dy="956" grid="1" gridSize="10" guides="1" tooltips="1" connect="1" arrows="1" fold="1" page="1" pageScale="1" pageWidth="2339" pageHeight="3300" math="0" shadow="0">
      <root>
        <mxCell id="0" />
        <mxCell id="1" parent="0" />
        <mxCell id="S6Ds2HR3s4sgnbYo6ZHa-15" value="Raw" style="swimlane;whiteSpace=wrap;html=1;" parent="1" vertex="1">
          <mxGeometry x="30" y="370" width="300" height="340" as="geometry" />
        </mxCell>
        <mxCell id="S6Ds2HR3s4sgnbYo6ZHa-4" style="edgeStyle=orthogonalEdgeStyle;rounded=0;orthogonalLoop=1;jettySize=auto;html=1;" parent="1" source="S6Ds2HR3s4sgnbYo6ZHa-1" target="S6Ds2HR3s4sgnbYo6ZHa-2" edge="1">
          <mxGeometry relative="1" as="geometry" />
        </mxCell>
        <mxCell id="S6Ds2HR3s4sgnbYo6ZHa-1" value="" style="points=[[0.03,0.03,0],[0.5,0,0],[0.97,0.03,0],[1,0.4,0],[0.97,0.745,0],[0.5,1,0],[0.03,0.745,0],[0,0.4,0]];verticalLabelPosition=bottom;sketch=0;html=1;verticalAlign=top;aspect=fixed;align=center;pointerEvents=1;shape=mxgraph.cisco19.workstation;fillColor=#005073;strokeColor=none;" parent="1" vertex="1">
          <mxGeometry x="40.5" y="180" width="100" height="80" as="geometry" />
        </mxCell>
        <mxCell id="S6Ds2HR3s4sgnbYo6ZHa-10" style="edgeStyle=orthogonalEdgeStyle;rounded=0;orthogonalLoop=1;jettySize=auto;html=1;" parent="1" source="S6Ds2HR3s4sgnbYo6ZHa-2" target="S6Ds2HR3s4sgnbYo6ZHa-9" edge="1">
          <mxGeometry relative="1" as="geometry" />
        </mxCell>
        <mxCell id="S6Ds2HR3s4sgnbYo6ZHa-2" value="Bucket S3" style="sketch=0;outlineConnect=0;fontColor=#232F3E;gradientColor=none;fillColor=#7AA116;strokeColor=none;dashed=0;verticalLabelPosition=bottom;verticalAlign=top;align=center;html=1;fontSize=12;fontStyle=0;aspect=fixed;pointerEvents=1;shape=mxgraph.aws4.backup_aws_backup_support_for_amazon_s3;" parent="1" vertex="1">
          <mxGeometry x="60.5" y="430" width="60" height="60" as="geometry" />
        </mxCell>
        <mxCell id="S6Ds2HR3s4sgnbYo6ZHa-3" value="" style="image;aspect=fixed;html=1;points=[];align=center;fontSize=12;image=img/lib/azure2/general/File.svg;" parent="1" vertex="1">
          <mxGeometry x="81.17" y="630" width="40.58" height="50" as="geometry" />
        </mxCell>
        <mxCell id="S6Ds2HR3s4sgnbYo6ZHa-12" style="edgeStyle=orthogonalEdgeStyle;rounded=0;orthogonalLoop=1;jettySize=auto;html=1;" parent="1" source="S6Ds2HR3s4sgnbYo6ZHa-9" edge="1">
          <mxGeometry relative="1" as="geometry">
            <mxPoint x="300.000705170492" y="460" as="targetPoint" />
          </mxGeometry>
        </mxCell>
        <mxCell id="S6Ds2HR3s4sgnbYo6ZHa-9" value="SQS&lt;br&gt;" style="sketch=0;points=[[0,0,0],[0.25,0,0],[0.5,0,0],[0.75,0,0],[1,0,0],[0,1,0],[0.25,1,0],[0.5,1,0],[0.75,1,0],[1,1,0],[0,0.25,0],[0,0.5,0],[0,0.75,0],[1,0.25,0],[1,0.5,0],[1,0.75,0]];outlineConnect=0;fontColor=#232F3E;fillColor=#E7157B;strokeColor=#ffffff;dashed=0;verticalLabelPosition=bottom;verticalAlign=top;align=center;html=1;fontSize=12;fontStyle=0;aspect=fixed;shape=mxgraph.aws4.resourceIcon;resIcon=mxgraph.aws4.sqs;" parent="1" vertex="1">
          <mxGeometry x="160.58" y="435.5" width="49" height="49" as="geometry" />
        </mxCell>
        <mxCell id="S6Ds2HR3s4sgnbYo6ZHa-14" value="" style="dashed=0;outlineConnect=0;html=1;align=center;labelPosition=center;verticalLabelPosition=bottom;verticalAlign=top;shape=mxgraph.weblogos.json" parent="1" vertex="1">
          <mxGeometry x="154.58" y="620" width="50" height="60" as="geometry" />
        </mxCell>
        <mxCell id="S6Ds2HR3s4sgnbYo6ZHa-16" value="Data Lake" style="swimlane;whiteSpace=wrap;html=1;" parent="1" vertex="1">
          <mxGeometry x="10" y="300" width="1240" height="780" as="geometry" />
        </mxCell>
        <mxCell id="S6Ds2HR3s4sgnbYo6ZHa-18" value="Stage" style="swimlane;whiteSpace=wrap;html=1;" parent="S6Ds2HR3s4sgnbYo6ZHa-16" vertex="1">
          <mxGeometry x="340" y="70" width="300" height="340" as="geometry" />
        </mxCell>
        <mxCell id="S6Ds2HR3s4sgnbYo6ZHa-19" value="Bucket S3" style="sketch=0;outlineConnect=0;fontColor=#232F3E;gradientColor=none;fillColor=#7AA116;strokeColor=none;dashed=0;verticalLabelPosition=bottom;verticalAlign=top;align=center;html=1;fontSize=12;fontStyle=0;aspect=fixed;pointerEvents=1;shape=mxgraph.aws4.backup_aws_backup_support_for_amazon_s3;" parent="S6Ds2HR3s4sgnbYo6ZHa-18" vertex="1">
          <mxGeometry x="64" y="65.5" width="60" height="60" as="geometry" />
        </mxCell>
        <mxCell id="S6Ds2HR3s4sgnbYo6ZHa-30" value="GLUE&lt;br&gt;" style="sketch=0;points=[[0,0,0],[0.25,0,0],[0.5,0,0],[0.75,0,0],[1,0,0],[0,1,0],[0.25,1,0],[0.5,1,0],[0.75,1,0],[1,1,0],[0,0.25,0],[0,0.5,0],[0,0.75,0],[1,0.25,0],[1,0.5,0],[1,0.75,0]];outlineConnect=0;fontColor=#232F3E;fillColor=#8C4FFF;strokeColor=#ffffff;dashed=0;verticalLabelPosition=bottom;verticalAlign=top;align=center;html=1;fontSize=12;fontStyle=0;aspect=fixed;shape=mxgraph.aws4.resourceIcon;resIcon=mxgraph.aws4.glue;" parent="S6Ds2HR3s4sgnbYo6ZHa-18" vertex="1">
          <mxGeometry x="180" y="71" width="60" height="60" as="geometry" />
        </mxCell>
        <mxCell id="O3O1dc4vRpSWTkktztUF-10" value="" style="shape=image;verticalLabelPosition=bottom;labelBackgroundColor=default;verticalAlign=top;aspect=fixed;imageAspect=0;image=data:image/svg+xml,PHN2ZyB4bWxucz0iaHR0cDovL3d3dy53My5vcmcvMjAwMC9zdmciIHZpZXdCb3g9IjAgMCAyMzguMiA0OC42IiB2ZXJzaW9uPSIxLjEiIGhlaWdodD0iNDguNm1tIiB3aWR0aD0iMjM4LjJtbSI+JiN4YTsgJiN4YTsgPHRpdGxlPkFwYWNoZSBQYXJxdWV0IGxvZ288L3RpdGxlPiYjeGE7IDxtZXRhZGF0YT4mI3hhOyAgJiN4YTsgICAmI3hhOyAgICBpbWFnZS9zdmcreG1sJiN4YTsgICAgJiN4YTsgICAgQXBhY2hlIFBhcnF1ZXQgbG9nbyYjeGE7ICAgJiN4YTsgICYjeGE7IDwvbWV0YWRhdGE+JiN4YTsgPGcgdHJhbnNmb3JtPSJ0cmFuc2xhdGUoMTI0LjQgLTM4LjUxKSI+JiN4YTsgIDxwYXRoIHN0eWxlPSJmaWxsOiM1MGFiZjE7c3Ryb2tlLXdpZHRoOi4yNjQ2IiBkPSJtLTk2LjEzIDg0LjQ3Yy0yLjQ1Mi0yLjYxNi0yLjUyNS0yLjcyOS0yLjA4NC0zLjIyNCAwLjY5ODYtMC43ODQgMzAuNS0yOC4wNiAzMC45Mi0yOC4zMSAwLjM3MDEtMC4yMTM3IDQuMDIzIDEuNTUgNC44MjIgMi4zMjggMC4zMDYgMC4yOTgyLTIuMDY4IDIuODM2LTE1LjAyIDE2LjA1LTguNDYxIDguNjM1LTE1LjU1IDE1Ljc0LTE1Ljc0IDE1Ljc4LTAuMTk2NiAwLjA0MzUtMS41MDEtMS4xNDEtMi44OTgtMi42MzJ6bTEzMS43LTAuMjcwM2MtMC4yMzM3LTAuMjMzNy0wLjMyNTQtMS42ODktMC4zMjU0LTUuMTY3IDAtMi42NjMtMC4wNzAwOS00Ljg0Mi0wLjE1NTctNC44NDItMC4wODU2NiAwLTAuNzY3NiAwLjUzNTItMS41MTUgMS4xODktMS43ODIgMS41NTktMy4zNDEgMi4wNjgtNS45NTQgMS45NDMtNS44Mi0wLjI3OTItOS4yOTktNS4zMTEtOS4yOTktMTMuNDUgMC01LjA4NSAxLjIwMS04LjYwNiAzLjc2My0xMS4wMyAyLjY4LTIuNTM1IDYuNDU0LTMuMjA2IDkuNTg5LTEuNzA0IDAuODczMSAwLjQxODIgMS45MzcgMS4xMzIgMi4zNjUgMS41ODcgMC40Mjc0IDAuNDU0OCAwLjg2NzQgMC44MjcgMC45Nzc3IDAuODI3IDAuMTEwMyAwIDAuMjM2OS0wLjU2NTYgMC4yODEyLTEuMjU3bDAuMDgwNjQtMS4yNTcgNi43NTEtMC4xNDgyLTAuMDY4MTIgMTYuNzQtMC4wNjgxMiAxNi43NC0zLjA0OCAwLjA3NGMtMi4xNDYgMC4wNTIxLTMuMTQ0LTAuMDIyMy0zLjM3My0wLjI1MTR6bS0zLjE4My0xMy4zNWMzLjc0OS0xLjkxNSA0LjA5LTEwLjgyIDAuNTE4Mi0xMy41NS0xLjMtMC45OTE2LTMuNTQzLTEuMTE0LTQuNzk4LTAuMjYwNy0xLjg0NyAxLjI1NS0yLjkxNyAzLjc0Ny0yLjkxNyA2Ljc5NSAwIDUuNTY4IDMuNDQ5IDguOTMgNy4xOTYgNy4wMTV6bS0xMzUuMiA2LjY2OWMtMS4zMjItMS4zMjktMi4xNTgtMi4zNzMtMi4wNzQtMi41OSAwLjE1MDctMC4zOTI3IDE3LjI4LTE0LjI0IDE3LjYtMTQuMjMgMC4zOTQ4IDAuMDE0OCA0LjQyNiAzLjA3OCA0LjQyNiAzLjM2MyAwIDAuMzAwMS0xNy4yMiAxNS42OC0xNy41NiAxNS42OC0wLjEwMDIgMC0xLjE3OC0xLjAwMi0yLjM5Ni0yLjIyNnptMTg1LjgtMC4yOTIyYy0yLjI2Mi0wLjQ5MTMtNC4wMjYtMS41MTMtNS43NjktMy4zNDEtMi40NDgtMi41NjYtMy41NjEtNS42ODctMy41NTQtOS45NjMgMC4wMDk5LTUuODQ0IDIuNTEyLTEwLjQzIDYuODYzLTEyLjU3IDEuNjIxLTAuNzk3OSAxLjg5MS0wLjg0NzIgNC42MzctMC44NDcyIDIuNjEyIDAgMy4wNzQgMC4wNzQxIDQuNDM0IDAuNzExMiA0LjE0MiAxLjk0MSA2LjcwMyA3LjA0MiA2LjQ5NyAxMi45NGwtMC4wNzc0NyAyLjIyMi03LjUzMiAwLjA3MDRjLTQuMTQyIDAuMDM4Ny03LjYzNCAwLjE3MzItNy43NiAwLjI5ODktMC4zNjg5IDAuMzY4OSAwLjg1ODUgMi44NzEgMS44MjQgMy43MTkgMi4xMSAxLjg1MiA1LjEwNCAxLjczNSA3Ljk1NS0wLjMxMWwxLjIwOC0wLjg2NzEgMS4wNDYgMS4xOTFjMC41NzU1IDAuNjU0OCAxLjM2MiAxLjU5NCAxLjc0OSAyLjA4N2wwLjcwMjIgMC44OTYzLTEuMTg0IDEuMDZjLTIuMDg4IDEuODctNS40OTIgMy4xMzQtOC4yOTcgMy4wNzktMC41OTg2LTAuMDExNi0xLjgzMi0wLjE4MjYtMi43NDItMC4zODAyem02LjA5Ny0xNS41NGMwLjQwNDItMC4zMDExIDAuNDA5OS0wLjQ1OSAwLjA2MzcyLTEuNzYxLTAuOTM3NS0zLjUyNS00LjE0NS01LjAwMi02LjUyLTMuMDAzLTAuOTM3MyAwLjc4ODctMS40MjIgMS42NzEtMS44NDggMy4zNjItMC4yNjE5IDEuMDQtMC4yNTI5IDEuMjk4IDAuMDUyMjcgMS40OTEgMC41OTQ2IDAuMzc2NSA3LjczMSAwLjI5OTUgOC4yNTItMC4wODl6bS0xMDkuMiAxNS4zMWMtMy41MjEtMS4zMS01LjQ2LTUuMjEzLTQuNjkzLTkuNDQ0IDAuNTM0NS0yLjk0OCAxLjg1My00LjcxNCA0LjM2My01Ljg0MyAxLjc4Ny0wLjgwNDMgNi4wMTUtMS4wMDUgOC4xNDItMC4zODY1IDAuODA1MiAwLjIzNDEgMS41MjIgMC40MjU2IDEuNTkzIDAuNDI1NiAwLjM0NDUgMCAwLjQyNi0wLjk2MjUgMC4xNjQ5LTEuOTQ3LTAuMzI3MS0xLjIzMy0xLjA1NS0yLjEzNS0yLjIyOC0yLjc2LTEuMTg4LTAuNjMzLTQuMTU1LTAuNTM5NS02LjQ2NyAwLjIwMzgtMS4wODggMC4zNDk4LTEuOTg2IDAuNTA5Mi0yLjEwNSAwLjM3MzctMC4yOTM4LTAuMzM0MS0xLjYxNC00LjE5OS0xLjYxNC00LjcyNSAwLTEuMDA2IDQuNTk0LTIuMjgzIDguMzItMi4zMTQgNC4zOTgtMC4wMzYgNy4yNiAxLjA1NiA5LjAwNiAzLjQzNSAxLjgxMSAyLjQ2OSAxLjg1NiAyLjc5NSAxLjg1NiAxMy40MnY5LjUyNWwtMy4wMiAwLjA3NTJjLTEuNjYxIDAuMDQxNC0zLjEyNi0wLjAzMDYtMy4yNTYtMC4xNTk5LTAuMTI5My0wLjEyOTMtMC4yODQ2LTAuNjI1OS0wLjM0NS0xLjEwNC0wLjA2MDQ0LTAuNDc3Ni0wLjE2OS0wLjkyNzUtMC4yNDEzLTAuOTk5OC0wLjA3MjI3LTAuMDcyMy0wLjU1MzcgMC4yMzk0LTEuMDcgMC42OTI2LTEuNjE0IDEuNDE3LTIuNDU1IDEuNzItNS4wMzIgMS44MTMtMS41ODMgMC4wNTcxLTIuNzE0LTAuMDM3OS0zLjM3NC0wLjI4MzR6bTcuODQ0LTUuMjY0YzEuMzczLTAuNzg3IDIuMDEyLTIuMDQyIDIuMDEyLTMuOTUxIDAtMS44ODktMC4zMzEzLTIuMTE2LTMuMzA3LTIuMjY5LTEuODk0LTAuMDk3Ni0yLjIxNC0wLjA0MjktMy4wMzkgMC41MTkyLTEuMjY1IDAuODYxOS0xLjYzMyAxLjY2OC0xLjUxNSAzLjMyIDAuMTUzMSAyLjE0NyAxLjA4NiAyLjkzNyAzLjQ5NSAyLjk2IDAuOTAyOCA4ZS0zIDEuNjUtMC4xNzUzIDIuMzU0LTAuNTc4NXptNjQuNzYgNS4yOTFjLTEuNDYtMC40NjczLTMuMzc4LTIuNDA0LTQuMDY1LTQuMTA3LTAuNi0xLjQ4Ni0wLjYwOTgtMS42NzUtMC42MTAxLTExLjdsLTIuNjVlLTQgLTEwLjE5IDYuNzItMC4xNDc5IDAuMDc5NDIgOC44MDVjMC4wNzA2NCA3LjgzMiAwLjEzMTIgOC45IDAuNTQ3OSA5LjY2MyAxLjM4MSAyLjUyOCA0Ljk5OCAyLjUwOCA2LjM1OC0wLjAzMzkgMC41NjAxLTEuMDQ3IDAuNTg1My0xLjQxNiAwLjY2NzUtOS43NjFsMC4wODU0My04LjY3MyA2LjcwOCAwLjE0NzggMC4wNjg3MyAxMi42N2MwLjA1MDQzIDkuMjk2LTAuMDEyODEgMTIuNzctMC4yMzc1IDEzLjA0LTAuMjM2NyAwLjI4NTItMS4wMDMgMC4zNTIyLTMuMzc2IDAuMjk0OGwtMy4wNy0wLjA3NDItMC4wODI4NS0xLjE5MWMtMC4wNDU1Ny0wLjY1NDgtMC4xODIyLTEuMjkyLTAuMzAzNy0xLjQxNS0wLjEyMTUtMC4xMjM0LTAuNzM5IDAuMjgxMS0xLjM3MiAwLjg5ODktMS42NiAxLjYyLTIuODY5IDIuMDk2LTUuMjUzIDIuMDcxLTEuMDkxLTAuMDExNy0yLjM4MS0wLjE0OC0yLjg2NS0wLjMwMjl6bTUzLjM0IDAuMDg0M2MtMS41NjUtMC40OTczLTIuNTU2LTEuMzYtMy4yOTgtMi44NzFsLTAuNzQwNC0xLjUwOC0wLjE3MzItMTYuMDFoLTEuMDA2Yy0xLjQ1NiAwLTEuNjMyLTAuMzY1My0xLjU0NC0zLjIxNCAwLjA3NDc0LTIuNDE5IDAuMDkxMDMtMi40NzYgMC43Mzc5LTIuNTQ4IDEuOTU5LTAuMjE5MyAxLjg1Mi0wLjAyODQgMS44NTItMy4zMTggMC0xLjk2OSAwLjEwODEtMy4wOTMgMC4zMTc1LTMuMzAyIDAuNDUwMy0wLjQ1MDMgNi4xODctMC40Mzg2IDYuNDggMC4wMTMyMyAwLjExNzcgMC4xODE5IDAuMjczNiAxLjcgMC4zNDY0IDMuMzczbDAuMTMyMyAzLjA0MyA0LjkxMiAwLjE1MjQtMC4wNzUgMi44MzQtMC4wNzUgMi44MzQtNC44OTUgMC4xNTIydjYuNzM3YzAgOC40ODQtMC4xNzQgOC4xODYgNC4zNjYgNy40ODEgMC40OTQ1LTAuMDc2OSAwLjUzNDEgMC4wODczIDAuNjA1IDIuNTA4bDAuMDc1OSAyLjU5LTEuMjY2IDAuNTc4MWMtMS4zODIgMC42MzEtNS4zNzUgMC45MTAyLTYuNzUzIDAuNDcyM3ptLTE1Ni43LTAuMzM1N2MtMC4wNzEyNi0wLjE4NjQtMC4wOTg3LTcuODk5LTAuMDYwOTgtMTcuMTRsMC4wNjg1Ny0xNi44IDcuMTQ0IDAuMDE1NjZjNi42OTcgMC4wMTQ2OCA3LjI1MSAwLjA1Mjg2IDguODY0IDAuNjEwMyA0LjcwNCAxLjYyNiA3LjI3NCA1LjA4MiA3LjYwMyAxMC4yMiAwLjMzNTggNS4yNDktMi4wNDYgOS41NTYtNi4zNTkgMTEuNS0yLjI0OSAxLjAxMy0zLjk3IDEuMzMzLTcuMTc4IDEuMzMzLTEuOTQ1IDAtMi44MTcgMC4xMDEtMy4wMjQgMC4zNTA0LTAuMTgxOSAwLjIxOTItMC4zMTc5IDIuMTc3LTAuMzYzMSA1LjIyNmwtMC4wNzIyOSA0Ljg3NS0zLjI0NiAwLjA3NDNjLTIuNDUgMC4wNTYxLTMuMjc4LTllLTMgLTMuMzc2LTAuMjY0NnptMTMuNS0xNy4xMWMxLjk1My0wLjkwMTIgMy4wNTItMi43MDggMy4wMzEtNC45ODItMC4wMzM2My0zLjY2NC0xLjg0OS01LjI2NC02LjMwMS01LjU1My0zLjYzOS0wLjIzNTgtMy40NzctMC40ODU0LTMuNDc3IDUuMzMzIDAgMi42NzUgMC4wNzIyNyA1LjA1MiAwLjE2MDYgNS4yODIgMC4yNDc2IDAuNjQ1MyA1LjE0MyAwLjU4NDcgNi41ODYtMC4wODE2em0zOS4zMiAxNy4wN2MtMC4yMTYtMC4yNjAyLTAuMjgwNC0zLjg5Ni0wLjIzMDgtMTMuMDNsMC4wNjg3My0xMi42NyAzLjI4Ni0wLjA3NDdjMi40NTEtMC4wNTU3IDMuMzQxIDAuMDExNSAzLjUwMiAwLjI2NDYgMC4xMTg0IDAuMTg2NiAwLjIxNzEgMC45NjQzIDAuMjE5MyAxLjcyOCA0ZS0zIDEuMzYgMC4zNTA1IDEuODUyIDAuNjQ2NiAwLjkxOTQgMC4yMDc1LTAuNjUzOCAxLjk0My0yLjM5NiAyLjg1OS0yLjg3IDAuNDE4My0wLjIxNjMgMS4zNS0wLjQ2MzEgMi4wNjktMC41NDgzbDEuMzA5LTAuMTU1djcuNDM2bC0xLjEyNCAwLjE4NzJjLTEuODcxIDAuMzExNS0zLjA3MyAwLjkyNDItNC4wNDcgMi4wNjItMS41MTQgMS43NjgtMS43MDggMi44OTQtMS43MDggOS45MDIgMCAzLjc1OS0wLjEwNzUgNi4zODgtMC4yNzM5IDYuNjk5LTAuMjQ2MSAwLjQ1OTgtMC41Nzg3IDAuNTExOC0zLjI3NSAwLjUxMTgtMi4yMTIgMC0zLjA4LTAuMDk0OS0zLjMwMS0wLjM2MXptLTExMS01LjYwM2MtMS4wMzUtMS4xNTYtMS42ODUtMi4wOS0xLjU0NS0yLjIyIDAuNzIxOS0wLjY3MzkgOC4xNy01LjgzOSA4LjQxNi01LjgzNiAwLjQwMDQgNWUtMyAzLjk5NSAzLjA4NyAzLjk5NSAzLjQyNiAwIDAuNDE2Mi04LjA2NiA2LjYyNS04LjYwNyA2LjYyNS0wLjI2MDUgMC0xLjI3Ny0wLjg5NzgtMi4yNTktMS45OTV6bS01LjEzMy01LjI2OGMtMS40ODItMS40OTktMS42NTktMS43NzktMS4zMjMtMi4wOTEgMC40ODIzLTAuNDQ4MSAyNC4xNi0xNS43MyAyNC42NC0xNS45MSAwLjM3ODgtMC4xMzc1IDMuNjU4IDEuODQ4IDMuNjU4IDIuMjE1IDAgMC4yNjIyLTI0LjI3IDE3LjI2LTI0Ljg2IDE3LjQxLTAuMjM0NiAwLjA2MDItMS4xMjItMC42MjIyLTIuMTE1LTEuNjI3em0xNS43OS0yLjQxNGMtMC45Nzc1LTAuODExNC0xLjc3Mi0xLjYxNS0xLjc2Ni0xLjc4NiA2ZS0zIC0wLjE3MDkgMC44Njk3LTAuOTEzNiAxLjkxOC0xLjY1MSAxLjA0OS0wLjczNjkgNS43NS00LjEgMTAuNDUtNy40NzQgNC42OTctMy4zNzQgOC43MzQtNi4xMzUgOC45Ny02LjEzNSAwLjYzMjIgMCAzLjgzMyAxLjg1IDMuNzMgMi4xNTctMC4xNDg0IDAuNDQ1Mi0yMC42OSAxNi4zNi0yMS4xMiAxNi4zNi0wLjIyMyAyZS0zIC0xLjIwNS0wLjY2MDUtMi4xODMtMS40NzJ6bS0yMC41Ni0yLjM4M2MtMS4xNjctMS4yMzQtMS4zMzYtMS41MzItMS4wMzEtMS44MSAwLjI2NDQtMC4yNDEgMTQuOTMtOC45MDQgMTYuNy05Ljg2NiAwLjI5My0wLjE1OSAzLjQwMiAyLjA4NCAzLjMwMyAyLjM4Mi0wLjEyODYgMC4zODU5LTE2LjY3IDEwLjc3LTE3LjE2IDEwLjc3LTAuMjMzNiAyLjFlLTQgLTEuMDUzLTAuNjY0MS0xLjgyMS0xLjQ3NnptMzUuNDYgMC4wOTg3Yy0xLjA3My0wLjc3MDEtMS45OTMtMS41MjUtMi4wNDQtMS42NzctMC4wNzIyLTAuMjE3MiA5LjY1Ny04LjMwMyAxMS44Ni05Ljg2IDAuNDI5MS0wLjMwMjcgMC43NjY2LTAuMjAxOSAyLjYwNyAwLjc3ODYgMS4xNjMgMC42MTk1IDIuMTEyIDEuMjUyIDIuMTEgMS40MDYtMC4wMDUzIDAuMzkzNy0xMS41OSAxMC41OC0xMi4xMyAxMC42OC0wLjI0NzkgMC4wNDI1LTEuMzI5LTAuNTUyOC0yLjQwMy0xLjMyM3ptLTM5LjQxLTQuMjg0LTEuNDExLTEuNDI5IDAuNjI2My0wLjQwNTljMC4zNDQ1LTAuMjIzMiA3LjMzNy00LjAzNyAxNS41NC04LjQ3NmwxNC45MS04LjA3IDEuNDI2IDAuNjk5M2MwLjc4NDMgMC4zODQ2IDEuNDI2IDAuODI5NiAxLjQyNiAwLjk4ODggMCAwLjIxNzktMzAuNjYgMTguMTItMzEuMDMgMTguMTItMC4wNDA3IDAtMC43MDktMC42NDMtMS40ODUtMS40Mjl6bTIyLjkzLTcuMjA0Yy0wLjY5MTItMC41MTg4LTEuMjU2LTEuMDgxLTEuMjU1LTEuMjQ5IDcuOWUtNCAtMC4xNjggMi43OTYtMS45NTEgNi4yMTEtMy45NjNsNi4yMDktMy42NTcgMS41OTQgMC44NDk3YzAuODc2OCAwLjQ2NzQgMS41OTQgMC45NCAxLjU5NCAxLjA1IDAgMC4zMTM3LTEyLjE4IDcuOTI5LTEyLjY2IDcuOTItMC4yMzg3LTRlLTMgLTAuOTk5Ni0wLjQzMjUtMS42OTEtMC45NTE0em0xMi40NC0xLjU4MmMtMC44MzY3LTAuNTE3MS0xLjUxOS0xLjA3OS0xLjUxNi0xLjI1IDVlLTMgLTAuMjg4NCA0LjIzNC0zLjEyMSA0LjkyOC0zLjMwMSAwLjMxOS0wLjA4MjYxIDMuMTY1IDEuNDE5IDMuMzk1IDEuNzkxIDAuMDY5MyAwLjExMjItMC4wNzk1IDAuMzg3LTAuMzMwNyAwLjYxMDctMC44NTkzIDAuNzY1LTQuMzg3IDMuMTA0LTQuNjcxIDMuMDk3LTAuMTU2LTAuMDAzOS0wLjk2ODItMC40MzAyLTEuODA1LTAuOTQ3M3oiLz4mI3hhOyA8L2c+JiN4YTs8L3N2Zz4=;" vertex="1" parent="S6Ds2HR3s4sgnbYo6ZHa-18">
          <mxGeometry x="52.85" y="240" width="194.29" height="40" as="geometry" />
        </mxCell>
        <mxCell id="S6Ds2HR3s4sgnbYo6ZHa-23" style="edgeStyle=orthogonalEdgeStyle;rounded=0;orthogonalLoop=1;jettySize=auto;html=1;" parent="S6Ds2HR3s4sgnbYo6ZHa-16" source="S6Ds2HR3s4sgnbYo6ZHa-17" target="S6Ds2HR3s4sgnbYo6ZHa-19" edge="1">
          <mxGeometry relative="1" as="geometry" />
        </mxCell>
        <mxCell id="S6Ds2HR3s4sgnbYo6ZHa-35" style="edgeStyle=orthogonalEdgeStyle;rounded=0;orthogonalLoop=1;jettySize=auto;html=1;" parent="S6Ds2HR3s4sgnbYo6ZHa-16" source="S6Ds2HR3s4sgnbYo6ZHa-17" target="S6Ds2HR3s4sgnbYo6ZHa-34" edge="1">
          <mxGeometry relative="1" as="geometry">
            <Array as="points">
              <mxPoint x="330" y="220" />
              <mxPoint x="260" y="220" />
              <mxPoint x="260" y="490" />
              <mxPoint x="94" y="490" />
            </Array>
          </mxGeometry>
        </mxCell>
        <mxCell id="S6Ds2HR3s4sgnbYo6ZHa-17" value="Lambda&lt;br&gt;" style="sketch=0;points=[[0,0,0],[0.25,0,0],[0.5,0,0],[0.75,0,0],[1,0,0],[0,1,0],[0.25,1,0],[0.5,1,0],[0.75,1,0],[1,1,0],[0,0.25,0],[0,0.5,0],[0,0.75,0],[1,0.25,0],[1,0.5,0],[1,0.75,0]];outlineConnect=0;fontColor=#232F3E;fillColor=#ED7100;strokeColor=#ffffff;dashed=0;verticalLabelPosition=bottom;verticalAlign=top;align=center;html=1;fontSize=12;fontStyle=0;aspect=fixed;shape=mxgraph.aws4.resourceIcon;resIcon=mxgraph.aws4.lambda;" parent="S6Ds2HR3s4sgnbYo6ZHa-16" vertex="1">
          <mxGeometry x="300" y="135.5" width="60" height="60" as="geometry" />
        </mxCell>
        <mxCell id="S6Ds2HR3s4sgnbYo6ZHa-13" value="GLUE&lt;br&gt;" style="sketch=0;points=[[0,0,0],[0.25,0,0],[0.5,0,0],[0.75,0,0],[1,0,0],[0,1,0],[0.25,1,0],[0.5,1,0],[0.75,1,0],[1,1,0],[0,0.25,0],[0,0.5,0],[0,0.75,0],[1,0.25,0],[1,0.5,0],[1,0.75,0]];outlineConnect=0;fontColor=#232F3E;fillColor=#8C4FFF;strokeColor=#ffffff;dashed=0;verticalLabelPosition=bottom;verticalAlign=top;align=center;html=1;fontSize=12;fontStyle=0;aspect=fixed;shape=mxgraph.aws4.resourceIcon;resIcon=mxgraph.aws4.glue;" parent="S6Ds2HR3s4sgnbYo6ZHa-16" vertex="1">
          <mxGeometry x="139.58" y="225" width="60" height="60" as="geometry" />
        </mxCell>
        <mxCell id="S6Ds2HR3s4sgnbYo6ZHa-31" value="Monitoreo de ingesta" style="swimlane;whiteSpace=wrap;html=1;" parent="S6Ds2HR3s4sgnbYo6ZHa-16" vertex="1">
          <mxGeometry x="20" y="450" width="610" height="290" as="geometry" />
        </mxCell>
        <mxCell id="S6Ds2HR3s4sgnbYo6ZHa-39" style="edgeStyle=orthogonalEdgeStyle;rounded=0;orthogonalLoop=1;jettySize=auto;html=1;" parent="S6Ds2HR3s4sgnbYo6ZHa-31" source="S6Ds2HR3s4sgnbYo6ZHa-34" target="S6Ds2HR3s4sgnbYo6ZHa-38" edge="1">
          <mxGeometry relative="1" as="geometry" />
        </mxCell>
        <mxCell id="S6Ds2HR3s4sgnbYo6ZHa-34" value="Dynamo DB&lt;br&gt;" style="outlineConnect=0;dashed=0;verticalLabelPosition=bottom;verticalAlign=top;align=center;html=1;shape=mxgraph.aws3.dynamo_db;fillColor=#2E73B8;gradientColor=none;" parent="S6Ds2HR3s4sgnbYo6ZHa-31" vertex="1">
          <mxGeometry x="48" y="70" width="52" height="60" as="geometry" />
        </mxCell>
        <mxCell id="S6Ds2HR3s4sgnbYo6ZHa-41" style="edgeStyle=orthogonalEdgeStyle;rounded=0;orthogonalLoop=1;jettySize=auto;html=1;" parent="S6Ds2HR3s4sgnbYo6ZHa-31" source="S6Ds2HR3s4sgnbYo6ZHa-38" target="S6Ds2HR3s4sgnbYo6ZHa-40" edge="1">
          <mxGeometry relative="1" as="geometry" />
        </mxCell>
        <mxCell id="S6Ds2HR3s4sgnbYo6ZHa-38" value="Lambda&lt;br&gt;" style="sketch=0;points=[[0,0,0],[0.25,0,0],[0.5,0,0],[0.75,0,0],[1,0,0],[0,1,0],[0.25,1,0],[0.5,1,0],[0.75,1,0],[1,1,0],[0,0.25,0],[0,0.5,0],[0,0.75,0],[1,0.25,0],[1,0.5,0],[1,0.75,0]];outlineConnect=0;fontColor=#232F3E;fillColor=#ED7100;strokeColor=#ffffff;dashed=0;verticalLabelPosition=bottom;verticalAlign=top;align=center;html=1;fontSize=12;fontStyle=0;aspect=fixed;shape=mxgraph.aws4.resourceIcon;resIcon=mxgraph.aws4.lambda;" parent="S6Ds2HR3s4sgnbYo6ZHa-31" vertex="1">
          <mxGeometry x="275" y="70" width="60" height="60" as="geometry" />
        </mxCell>
        <mxCell id="S6Ds2HR3s4sgnbYo6ZHa-40" value="SNS" style="sketch=0;points=[[0,0,0],[0.25,0,0],[0.5,0,0],[0.75,0,0],[1,0,0],[0,1,0],[0.25,1,0],[0.5,1,0],[0.75,1,0],[1,1,0],[0,0.25,0],[0,0.5,0],[0,0.75,0],[1,0.25,0],[1,0.5,0],[1,0.75,0]];outlineConnect=0;fontColor=#232F3E;fillColor=#E7157B;strokeColor=#ffffff;dashed=0;verticalLabelPosition=bottom;verticalAlign=top;align=center;html=1;fontSize=12;fontStyle=0;aspect=fixed;shape=mxgraph.aws4.resourceIcon;resIcon=mxgraph.aws4.sns;" parent="S6Ds2HR3s4sgnbYo6ZHa-31" vertex="1">
          <mxGeometry x="422" y="70" width="60" height="60" as="geometry" />
        </mxCell>
        <mxCell id="S6Ds2HR3s4sgnbYo6ZHa-42" value="" style="html=1;verticalLabelPosition=bottom;align=center;labelBackgroundColor=#ffffff;verticalAlign=top;strokeWidth=2;strokeColor=#0080F0;shadow=0;dashed=0;shape=mxgraph.ios7.icons.mail;" parent="S6Ds2HR3s4sgnbYo6ZHa-31" vertex="1">
          <mxGeometry x="437" y="190" width="30" height="16.5" as="geometry" />
        </mxCell>
        <mxCell id="O3O1dc4vRpSWTkktztUF-1" value="Analitycs" style="swimlane;whiteSpace=wrap;html=1;" vertex="1" parent="S6Ds2HR3s4sgnbYo6ZHa-16">
          <mxGeometry x="690" y="70" width="300" height="340" as="geometry" />
        </mxCell>
        <mxCell id="O3O1dc4vRpSWTkktztUF-2" value="Bucket S3" style="sketch=0;outlineConnect=0;fontColor=#232F3E;gradientColor=none;fillColor=#7AA116;strokeColor=none;dashed=0;verticalLabelPosition=bottom;verticalAlign=top;align=center;html=1;fontSize=12;fontStyle=0;aspect=fixed;pointerEvents=1;shape=mxgraph.aws4.backup_aws_backup_support_for_amazon_s3;" vertex="1" parent="O3O1dc4vRpSWTkktztUF-1">
          <mxGeometry x="64" y="65.5" width="60" height="60" as="geometry" />
        </mxCell>
        <mxCell id="O3O1dc4vRpSWTkktztUF-3" value="GLUE&lt;br&gt;" style="sketch=0;points=[[0,0,0],[0.25,0,0],[0.5,0,0],[0.75,0,0],[1,0,0],[0,1,0],[0.25,1,0],[0.5,1,0],[0.75,1,0],[1,1,0],[0,0.25,0],[0,0.5,0],[0,0.75,0],[1,0.25,0],[1,0.5,0],[1,0.75,0]];outlineConnect=0;fontColor=#232F3E;fillColor=#8C4FFF;strokeColor=#ffffff;dashed=0;verticalLabelPosition=bottom;verticalAlign=top;align=center;html=1;fontSize=12;fontStyle=0;aspect=fixed;shape=mxgraph.aws4.resourceIcon;resIcon=mxgraph.aws4.glue;" vertex="1" parent="O3O1dc4vRpSWTkktztUF-1">
          <mxGeometry x="180" y="71" width="60" height="60" as="geometry" />
        </mxCell>
        <mxCell id="O3O1dc4vRpSWTkktztUF-11" value="" style="shape=image;verticalLabelPosition=bottom;labelBackgroundColor=default;verticalAlign=top;aspect=fixed;imageAspect=0;image=data:image/svg+xml,PHN2ZyB4bWxucz0iaHR0cDovL3d3dy53My5vcmcvMjAwMC9zdmciIHZpZXdCb3g9IjAgMCAyMzguMiA0OC42IiB2ZXJzaW9uPSIxLjEiIGhlaWdodD0iNDguNm1tIiB3aWR0aD0iMjM4LjJtbSI+JiN4YTsgJiN4YTsgPHRpdGxlPkFwYWNoZSBQYXJxdWV0IGxvZ288L3RpdGxlPiYjeGE7IDxtZXRhZGF0YT4mI3hhOyAgJiN4YTsgICAmI3hhOyAgICBpbWFnZS9zdmcreG1sJiN4YTsgICAgJiN4YTsgICAgQXBhY2hlIFBhcnF1ZXQgbG9nbyYjeGE7ICAgJiN4YTsgICYjeGE7IDwvbWV0YWRhdGE+JiN4YTsgPGcgdHJhbnNmb3JtPSJ0cmFuc2xhdGUoMTI0LjQgLTM4LjUxKSI+JiN4YTsgIDxwYXRoIHN0eWxlPSJmaWxsOiM1MGFiZjE7c3Ryb2tlLXdpZHRoOi4yNjQ2IiBkPSJtLTk2LjEzIDg0LjQ3Yy0yLjQ1Mi0yLjYxNi0yLjUyNS0yLjcyOS0yLjA4NC0zLjIyNCAwLjY5ODYtMC43ODQgMzAuNS0yOC4wNiAzMC45Mi0yOC4zMSAwLjM3MDEtMC4yMTM3IDQuMDIzIDEuNTUgNC44MjIgMi4zMjggMC4zMDYgMC4yOTgyLTIuMDY4IDIuODM2LTE1LjAyIDE2LjA1LTguNDYxIDguNjM1LTE1LjU1IDE1Ljc0LTE1Ljc0IDE1Ljc4LTAuMTk2NiAwLjA0MzUtMS41MDEtMS4xNDEtMi44OTgtMi42MzJ6bTEzMS43LTAuMjcwM2MtMC4yMzM3LTAuMjMzNy0wLjMyNTQtMS42ODktMC4zMjU0LTUuMTY3IDAtMi42NjMtMC4wNzAwOS00Ljg0Mi0wLjE1NTctNC44NDItMC4wODU2NiAwLTAuNzY3NiAwLjUzNTItMS41MTUgMS4xODktMS43ODIgMS41NTktMy4zNDEgMi4wNjgtNS45NTQgMS45NDMtNS44Mi0wLjI3OTItOS4yOTktNS4zMTEtOS4yOTktMTMuNDUgMC01LjA4NSAxLjIwMS04LjYwNiAzLjc2My0xMS4wMyAyLjY4LTIuNTM1IDYuNDU0LTMuMjA2IDkuNTg5LTEuNzA0IDAuODczMSAwLjQxODIgMS45MzcgMS4xMzIgMi4zNjUgMS41ODcgMC40Mjc0IDAuNDU0OCAwLjg2NzQgMC44MjcgMC45Nzc3IDAuODI3IDAuMTEwMyAwIDAuMjM2OS0wLjU2NTYgMC4yODEyLTEuMjU3bDAuMDgwNjQtMS4yNTcgNi43NTEtMC4xNDgyLTAuMDY4MTIgMTYuNzQtMC4wNjgxMiAxNi43NC0zLjA0OCAwLjA3NGMtMi4xNDYgMC4wNTIxLTMuMTQ0LTAuMDIyMy0zLjM3My0wLjI1MTR6bS0zLjE4My0xMy4zNWMzLjc0OS0xLjkxNSA0LjA5LTEwLjgyIDAuNTE4Mi0xMy41NS0xLjMtMC45OTE2LTMuNTQzLTEuMTE0LTQuNzk4LTAuMjYwNy0xLjg0NyAxLjI1NS0yLjkxNyAzLjc0Ny0yLjkxNyA2Ljc5NSAwIDUuNTY4IDMuNDQ5IDguOTMgNy4xOTYgNy4wMTV6bS0xMzUuMiA2LjY2OWMtMS4zMjItMS4zMjktMi4xNTgtMi4zNzMtMi4wNzQtMi41OSAwLjE1MDctMC4zOTI3IDE3LjI4LTE0LjI0IDE3LjYtMTQuMjMgMC4zOTQ4IDAuMDE0OCA0LjQyNiAzLjA3OCA0LjQyNiAzLjM2MyAwIDAuMzAwMS0xNy4yMiAxNS42OC0xNy41NiAxNS42OC0wLjEwMDIgMC0xLjE3OC0xLjAwMi0yLjM5Ni0yLjIyNnptMTg1LjgtMC4yOTIyYy0yLjI2Mi0wLjQ5MTMtNC4wMjYtMS41MTMtNS43NjktMy4zNDEtMi40NDgtMi41NjYtMy41NjEtNS42ODctMy41NTQtOS45NjMgMC4wMDk5LTUuODQ0IDIuNTEyLTEwLjQzIDYuODYzLTEyLjU3IDEuNjIxLTAuNzk3OSAxLjg5MS0wLjg0NzIgNC42MzctMC44NDcyIDIuNjEyIDAgMy4wNzQgMC4wNzQxIDQuNDM0IDAuNzExMiA0LjE0MiAxLjk0MSA2LjcwMyA3LjA0MiA2LjQ5NyAxMi45NGwtMC4wNzc0NyAyLjIyMi03LjUzMiAwLjA3MDRjLTQuMTQyIDAuMDM4Ny03LjYzNCAwLjE3MzItNy43NiAwLjI5ODktMC4zNjg5IDAuMzY4OSAwLjg1ODUgMi44NzEgMS44MjQgMy43MTkgMi4xMSAxLjg1MiA1LjEwNCAxLjczNSA3Ljk1NS0wLjMxMWwxLjIwOC0wLjg2NzEgMS4wNDYgMS4xOTFjMC41NzU1IDAuNjU0OCAxLjM2MiAxLjU5NCAxLjc0OSAyLjA4N2wwLjcwMjIgMC44OTYzLTEuMTg0IDEuMDZjLTIuMDg4IDEuODctNS40OTIgMy4xMzQtOC4yOTcgMy4wNzktMC41OTg2LTAuMDExNi0xLjgzMi0wLjE4MjYtMi43NDItMC4zODAyem02LjA5Ny0xNS41NGMwLjQwNDItMC4zMDExIDAuNDA5OS0wLjQ1OSAwLjA2MzcyLTEuNzYxLTAuOTM3NS0zLjUyNS00LjE0NS01LjAwMi02LjUyLTMuMDAzLTAuOTM3MyAwLjc4ODctMS40MjIgMS42NzEtMS44NDggMy4zNjItMC4yNjE5IDEuMDQtMC4yNTI5IDEuMjk4IDAuMDUyMjcgMS40OTEgMC41OTQ2IDAuMzc2NSA3LjczMSAwLjI5OTUgOC4yNTItMC4wODl6bS0xMDkuMiAxNS4zMWMtMy41MjEtMS4zMS01LjQ2LTUuMjEzLTQuNjkzLTkuNDQ0IDAuNTM0NS0yLjk0OCAxLjg1My00LjcxNCA0LjM2My01Ljg0MyAxLjc4Ny0wLjgwNDMgNi4wMTUtMS4wMDUgOC4xNDItMC4zODY1IDAuODA1MiAwLjIzNDEgMS41MjIgMC40MjU2IDEuNTkzIDAuNDI1NiAwLjM0NDUgMCAwLjQyNi0wLjk2MjUgMC4xNjQ5LTEuOTQ3LTAuMzI3MS0xLjIzMy0xLjA1NS0yLjEzNS0yLjIyOC0yLjc2LTEuMTg4LTAuNjMzLTQuMTU1LTAuNTM5NS02LjQ2NyAwLjIwMzgtMS4wODggMC4zNDk4LTEuOTg2IDAuNTA5Mi0yLjEwNSAwLjM3MzctMC4yOTM4LTAuMzM0MS0xLjYxNC00LjE5OS0xLjYxNC00LjcyNSAwLTEuMDA2IDQuNTk0LTIuMjgzIDguMzItMi4zMTQgNC4zOTgtMC4wMzYgNy4yNiAxLjA1NiA5LjAwNiAzLjQzNSAxLjgxMSAyLjQ2OSAxLjg1NiAyLjc5NSAxLjg1NiAxMy40MnY5LjUyNWwtMy4wMiAwLjA3NTJjLTEuNjYxIDAuMDQxNC0zLjEyNi0wLjAzMDYtMy4yNTYtMC4xNTk5LTAuMTI5My0wLjEyOTMtMC4yODQ2LTAuNjI1OS0wLjM0NS0xLjEwNC0wLjA2MDQ0LTAuNDc3Ni0wLjE2OS0wLjkyNzUtMC4yNDEzLTAuOTk5OC0wLjA3MjI3LTAuMDcyMy0wLjU1MzcgMC4yMzk0LTEuMDcgMC42OTI2LTEuNjE0IDEuNDE3LTIuNDU1IDEuNzItNS4wMzIgMS44MTMtMS41ODMgMC4wNTcxLTIuNzE0LTAuMDM3OS0zLjM3NC0wLjI4MzR6bTcuODQ0LTUuMjY0YzEuMzczLTAuNzg3IDIuMDEyLTIuMDQyIDIuMDEyLTMuOTUxIDAtMS44ODktMC4zMzEzLTIuMTE2LTMuMzA3LTIuMjY5LTEuODk0LTAuMDk3Ni0yLjIxNC0wLjA0MjktMy4wMzkgMC41MTkyLTEuMjY1IDAuODYxOS0xLjYzMyAxLjY2OC0xLjUxNSAzLjMyIDAuMTUzMSAyLjE0NyAxLjA4NiAyLjkzNyAzLjQ5NSAyLjk2IDAuOTAyOCA4ZS0zIDEuNjUtMC4xNzUzIDIuMzU0LTAuNTc4NXptNjQuNzYgNS4yOTFjLTEuNDYtMC40NjczLTMuMzc4LTIuNDA0LTQuMDY1LTQuMTA3LTAuNi0xLjQ4Ni0wLjYwOTgtMS42NzUtMC42MTAxLTExLjdsLTIuNjVlLTQgLTEwLjE5IDYuNzItMC4xNDc5IDAuMDc5NDIgOC44MDVjMC4wNzA2NCA3LjgzMiAwLjEzMTIgOC45IDAuNTQ3OSA5LjY2MyAxLjM4MSAyLjUyOCA0Ljk5OCAyLjUwOCA2LjM1OC0wLjAzMzkgMC41NjAxLTEuMDQ3IDAuNTg1My0xLjQxNiAwLjY2NzUtOS43NjFsMC4wODU0My04LjY3MyA2LjcwOCAwLjE0NzggMC4wNjg3MyAxMi42N2MwLjA1MDQzIDkuMjk2LTAuMDEyODEgMTIuNzctMC4yMzc1IDEzLjA0LTAuMjM2NyAwLjI4NTItMS4wMDMgMC4zNTIyLTMuMzc2IDAuMjk0OGwtMy4wNy0wLjA3NDItMC4wODI4NS0xLjE5MWMtMC4wNDU1Ny0wLjY1NDgtMC4xODIyLTEuMjkyLTAuMzAzNy0xLjQxNS0wLjEyMTUtMC4xMjM0LTAuNzM5IDAuMjgxMS0xLjM3MiAwLjg5ODktMS42NiAxLjYyLTIuODY5IDIuMDk2LTUuMjUzIDIuMDcxLTEuMDkxLTAuMDExNy0yLjM4MS0wLjE0OC0yLjg2NS0wLjMwMjl6bTUzLjM0IDAuMDg0M2MtMS41NjUtMC40OTczLTIuNTU2LTEuMzYtMy4yOTgtMi44NzFsLTAuNzQwNC0xLjUwOC0wLjE3MzItMTYuMDFoLTEuMDA2Yy0xLjQ1NiAwLTEuNjMyLTAuMzY1My0xLjU0NC0zLjIxNCAwLjA3NDc0LTIuNDE5IDAuMDkxMDMtMi40NzYgMC43Mzc5LTIuNTQ4IDEuOTU5LTAuMjE5MyAxLjg1Mi0wLjAyODQgMS44NTItMy4zMTggMC0xLjk2OSAwLjEwODEtMy4wOTMgMC4zMTc1LTMuMzAyIDAuNDUwMy0wLjQ1MDMgNi4xODctMC40Mzg2IDYuNDggMC4wMTMyMyAwLjExNzcgMC4xODE5IDAuMjczNiAxLjcgMC4zNDY0IDMuMzczbDAuMTMyMyAzLjA0MyA0LjkxMiAwLjE1MjQtMC4wNzUgMi44MzQtMC4wNzUgMi44MzQtNC44OTUgMC4xNTIydjYuNzM3YzAgOC40ODQtMC4xNzQgOC4xODYgNC4zNjYgNy40ODEgMC40OTQ1LTAuMDc2OSAwLjUzNDEgMC4wODczIDAuNjA1IDIuNTA4bDAuMDc1OSAyLjU5LTEuMjY2IDAuNTc4MWMtMS4zODIgMC42MzEtNS4zNzUgMC45MTAyLTYuNzUzIDAuNDcyM3ptLTE1Ni43LTAuMzM1N2MtMC4wNzEyNi0wLjE4NjQtMC4wOTg3LTcuODk5LTAuMDYwOTgtMTcuMTRsMC4wNjg1Ny0xNi44IDcuMTQ0IDAuMDE1NjZjNi42OTcgMC4wMTQ2OCA3LjI1MSAwLjA1Mjg2IDguODY0IDAuNjEwMyA0LjcwNCAxLjYyNiA3LjI3NCA1LjA4MiA3LjYwMyAxMC4yMiAwLjMzNTggNS4yNDktMi4wNDYgOS41NTYtNi4zNTkgMTEuNS0yLjI0OSAxLjAxMy0zLjk3IDEuMzMzLTcuMTc4IDEuMzMzLTEuOTQ1IDAtMi44MTcgMC4xMDEtMy4wMjQgMC4zNTA0LTAuMTgxOSAwLjIxOTItMC4zMTc5IDIuMTc3LTAuMzYzMSA1LjIyNmwtMC4wNzIyOSA0Ljg3NS0zLjI0NiAwLjA3NDNjLTIuNDUgMC4wNTYxLTMuMjc4LTllLTMgLTMuMzc2LTAuMjY0NnptMTMuNS0xNy4xMWMxLjk1My0wLjkwMTIgMy4wNTItMi43MDggMy4wMzEtNC45ODItMC4wMzM2My0zLjY2NC0xLjg0OS01LjI2NC02LjMwMS01LjU1My0zLjYzOS0wLjIzNTgtMy40NzctMC40ODU0LTMuNDc3IDUuMzMzIDAgMi42NzUgMC4wNzIyNyA1LjA1MiAwLjE2MDYgNS4yODIgMC4yNDc2IDAuNjQ1MyA1LjE0MyAwLjU4NDcgNi41ODYtMC4wODE2em0zOS4zMiAxNy4wN2MtMC4yMTYtMC4yNjAyLTAuMjgwNC0zLjg5Ni0wLjIzMDgtMTMuMDNsMC4wNjg3My0xMi42NyAzLjI4Ni0wLjA3NDdjMi40NTEtMC4wNTU3IDMuMzQxIDAuMDExNSAzLjUwMiAwLjI2NDYgMC4xMTg0IDAuMTg2NiAwLjIxNzEgMC45NjQzIDAuMjE5MyAxLjcyOCA0ZS0zIDEuMzYgMC4zNTA1IDEuODUyIDAuNjQ2NiAwLjkxOTQgMC4yMDc1LTAuNjUzOCAxLjk0My0yLjM5NiAyLjg1OS0yLjg3IDAuNDE4My0wLjIxNjMgMS4zNS0wLjQ2MzEgMi4wNjktMC41NDgzbDEuMzA5LTAuMTU1djcuNDM2bC0xLjEyNCAwLjE4NzJjLTEuODcxIDAuMzExNS0zLjA3MyAwLjkyNDItNC4wNDcgMi4wNjItMS41MTQgMS43NjgtMS43MDggMi44OTQtMS43MDggOS45MDIgMCAzLjc1OS0wLjEwNzUgNi4zODgtMC4yNzM5IDYuNjk5LTAuMjQ2MSAwLjQ1OTgtMC41Nzg3IDAuNTExOC0zLjI3NSAwLjUxMTgtMi4yMTIgMC0zLjA4LTAuMDk0OS0zLjMwMS0wLjM2MXptLTExMS01LjYwM2MtMS4wMzUtMS4xNTYtMS42ODUtMi4wOS0xLjU0NS0yLjIyIDAuNzIxOS0wLjY3MzkgOC4xNy01LjgzOSA4LjQxNi01LjgzNiAwLjQwMDQgNWUtMyAzLjk5NSAzLjA4NyAzLjk5NSAzLjQyNiAwIDAuNDE2Mi04LjA2NiA2LjYyNS04LjYwNyA2LjYyNS0wLjI2MDUgMC0xLjI3Ny0wLjg5NzgtMi4yNTktMS45OTV6bS01LjEzMy01LjI2OGMtMS40ODItMS40OTktMS42NTktMS43NzktMS4zMjMtMi4wOTEgMC40ODIzLTAuNDQ4MSAyNC4xNi0xNS43MyAyNC42NC0xNS45MSAwLjM3ODgtMC4xMzc1IDMuNjU4IDEuODQ4IDMuNjU4IDIuMjE1IDAgMC4yNjIyLTI0LjI3IDE3LjI2LTI0Ljg2IDE3LjQxLTAuMjM0NiAwLjA2MDItMS4xMjItMC42MjIyLTIuMTE1LTEuNjI3em0xNS43OS0yLjQxNGMtMC45Nzc1LTAuODExNC0xLjc3Mi0xLjYxNS0xLjc2Ni0xLjc4NiA2ZS0zIC0wLjE3MDkgMC44Njk3LTAuOTEzNiAxLjkxOC0xLjY1MSAxLjA0OS0wLjczNjkgNS43NS00LjEgMTAuNDUtNy40NzQgNC42OTctMy4zNzQgOC43MzQtNi4xMzUgOC45Ny02LjEzNSAwLjYzMjIgMCAzLjgzMyAxLjg1IDMuNzMgMi4xNTctMC4xNDg0IDAuNDQ1Mi0yMC42OSAxNi4zNi0yMS4xMiAxNi4zNi0wLjIyMyAyZS0zIC0xLjIwNS0wLjY2MDUtMi4xODMtMS40NzJ6bS0yMC41Ni0yLjM4M2MtMS4xNjctMS4yMzQtMS4zMzYtMS41MzItMS4wMzEtMS44MSAwLjI2NDQtMC4yNDEgMTQuOTMtOC45MDQgMTYuNy05Ljg2NiAwLjI5My0wLjE1OSAzLjQwMiAyLjA4NCAzLjMwMyAyLjM4Mi0wLjEyODYgMC4zODU5LTE2LjY3IDEwLjc3LTE3LjE2IDEwLjc3LTAuMjMzNiAyLjFlLTQgLTEuMDUzLTAuNjY0MS0xLjgyMS0xLjQ3NnptMzUuNDYgMC4wOTg3Yy0xLjA3My0wLjc3MDEtMS45OTMtMS41MjUtMi4wNDQtMS42NzctMC4wNzIyLTAuMjE3MiA5LjY1Ny04LjMwMyAxMS44Ni05Ljg2IDAuNDI5MS0wLjMwMjcgMC43NjY2LTAuMjAxOSAyLjYwNyAwLjc3ODYgMS4xNjMgMC42MTk1IDIuMTEyIDEuMjUyIDIuMTEgMS40MDYtMC4wMDUzIDAuMzkzNy0xMS41OSAxMC41OC0xMi4xMyAxMC42OC0wLjI0NzkgMC4wNDI1LTEuMzI5LTAuNTUyOC0yLjQwMy0xLjMyM3ptLTM5LjQxLTQuMjg0LTEuNDExLTEuNDI5IDAuNjI2My0wLjQwNTljMC4zNDQ1LTAuMjIzMiA3LjMzNy00LjAzNyAxNS41NC04LjQ3NmwxNC45MS04LjA3IDEuNDI2IDAuNjk5M2MwLjc4NDMgMC4zODQ2IDEuNDI2IDAuODI5NiAxLjQyNiAwLjk4ODggMCAwLjIxNzktMzAuNjYgMTguMTItMzEuMDMgMTguMTItMC4wNDA3IDAtMC43MDktMC42NDMtMS40ODUtMS40Mjl6bTIyLjkzLTcuMjA0Yy0wLjY5MTItMC41MTg4LTEuMjU2LTEuMDgxLTEuMjU1LTEuMjQ5IDcuOWUtNCAtMC4xNjggMi43OTYtMS45NTEgNi4yMTEtMy45NjNsNi4yMDktMy42NTcgMS41OTQgMC44NDk3YzAuODc2OCAwLjQ2NzQgMS41OTQgMC45NCAxLjU5NCAxLjA1IDAgMC4zMTM3LTEyLjE4IDcuOTI5LTEyLjY2IDcuOTItMC4yMzg3LTRlLTMgLTAuOTk5Ni0wLjQzMjUtMS42OTEtMC45NTE0em0xMi40NC0xLjU4MmMtMC44MzY3LTAuNTE3MS0xLjUxOS0xLjA3OS0xLjUxNi0xLjI1IDVlLTMgLTAuMjg4NCA0LjIzNC0zLjEyMSA0LjkyOC0zLjMwMSAwLjMxOS0wLjA4MjYxIDMuMTY1IDEuNDE5IDMuMzk1IDEuNzkxIDAuMDY5MyAwLjExMjItMC4wNzk1IDAuMzg3LTAuMzMwNyAwLjYxMDctMC44NTkzIDAuNzY1LTQuMzg3IDMuMTA0LTQuNjcxIDMuMDk3LTAuMTU2LTAuMDAzOS0wLjk2ODItMC40MzAyLTEuODA1LTAuOTQ3M3oiLz4mI3hhOyA8L2c+JiN4YTs8L3N2Zz4=;" vertex="1" parent="O3O1dc4vRpSWTkktztUF-1">
          <mxGeometry x="52.860000000000014" y="240" width="194.29" height="40" as="geometry" />
        </mxCell>
        <mxCell id="O3O1dc4vRpSWTkktztUF-7" value="Discovery" style="swimlane;whiteSpace=wrap;html=1;" vertex="1" parent="S6Ds2HR3s4sgnbYo6ZHa-16">
          <mxGeometry x="690" y="440" width="300" height="300" as="geometry" />
        </mxCell>
        <mxCell id="O3O1dc4vRpSWTkktztUF-8" value="Bucket S3" style="sketch=0;outlineConnect=0;fontColor=#232F3E;gradientColor=none;fillColor=#7AA116;strokeColor=none;dashed=0;verticalLabelPosition=bottom;verticalAlign=top;align=center;html=1;fontSize=12;fontStyle=0;aspect=fixed;pointerEvents=1;shape=mxgraph.aws4.backup_aws_backup_support_for_amazon_s3;" vertex="1" parent="O3O1dc4vRpSWTkktztUF-7">
          <mxGeometry x="64" y="65.5" width="60" height="60" as="geometry" />
        </mxCell>
        <mxCell id="O3O1dc4vRpSWTkktztUF-9" value="GLUE&lt;br&gt;" style="sketch=0;points=[[0,0,0],[0.25,0,0],[0.5,0,0],[0.75,0,0],[1,0,0],[0,1,0],[0.25,1,0],[0.5,1,0],[0.75,1,0],[1,1,0],[0,0.25,0],[0,0.5,0],[0,0.75,0],[1,0.25,0],[1,0.5,0],[1,0.75,0]];outlineConnect=0;fontColor=#232F3E;fillColor=#8C4FFF;strokeColor=#ffffff;dashed=0;verticalLabelPosition=bottom;verticalAlign=top;align=center;html=1;fontSize=12;fontStyle=0;aspect=fixed;shape=mxgraph.aws4.resourceIcon;resIcon=mxgraph.aws4.glue;" vertex="1" parent="O3O1dc4vRpSWTkktztUF-7">
          <mxGeometry x="180" y="71" width="60" height="60" as="geometry" />
        </mxCell>
        <mxCell id="O3O1dc4vRpSWTkktztUF-12" value="" style="shape=image;verticalLabelPosition=bottom;labelBackgroundColor=default;verticalAlign=top;aspect=fixed;imageAspect=0;image=data:image/svg+xml,PHN2ZyB4bWxucz0iaHR0cDovL3d3dy53My5vcmcvMjAwMC9zdmciIHZpZXdCb3g9IjAgMCAyMzguMiA0OC42IiB2ZXJzaW9uPSIxLjEiIGhlaWdodD0iNDguNm1tIiB3aWR0aD0iMjM4LjJtbSI+JiN4YTsgJiN4YTsgPHRpdGxlPkFwYWNoZSBQYXJxdWV0IGxvZ288L3RpdGxlPiYjeGE7IDxtZXRhZGF0YT4mI3hhOyAgJiN4YTsgICAmI3hhOyAgICBpbWFnZS9zdmcreG1sJiN4YTsgICAgJiN4YTsgICAgQXBhY2hlIFBhcnF1ZXQgbG9nbyYjeGE7ICAgJiN4YTsgICYjeGE7IDwvbWV0YWRhdGE+JiN4YTsgPGcgdHJhbnNmb3JtPSJ0cmFuc2xhdGUoMTI0LjQgLTM4LjUxKSI+JiN4YTsgIDxwYXRoIHN0eWxlPSJmaWxsOiM1MGFiZjE7c3Ryb2tlLXdpZHRoOi4yNjQ2IiBkPSJtLTk2LjEzIDg0LjQ3Yy0yLjQ1Mi0yLjYxNi0yLjUyNS0yLjcyOS0yLjA4NC0zLjIyNCAwLjY5ODYtMC43ODQgMzAuNS0yOC4wNiAzMC45Mi0yOC4zMSAwLjM3MDEtMC4yMTM3IDQuMDIzIDEuNTUgNC44MjIgMi4zMjggMC4zMDYgMC4yOTgyLTIuMDY4IDIuODM2LTE1LjAyIDE2LjA1LTguNDYxIDguNjM1LTE1LjU1IDE1Ljc0LTE1Ljc0IDE1Ljc4LTAuMTk2NiAwLjA0MzUtMS41MDEtMS4xNDEtMi44OTgtMi42MzJ6bTEzMS43LTAuMjcwM2MtMC4yMzM3LTAuMjMzNy0wLjMyNTQtMS42ODktMC4zMjU0LTUuMTY3IDAtMi42NjMtMC4wNzAwOS00Ljg0Mi0wLjE1NTctNC44NDItMC4wODU2NiAwLTAuNzY3NiAwLjUzNTItMS41MTUgMS4xODktMS43ODIgMS41NTktMy4zNDEgMi4wNjgtNS45NTQgMS45NDMtNS44Mi0wLjI3OTItOS4yOTktNS4zMTEtOS4yOTktMTMuNDUgMC01LjA4NSAxLjIwMS04LjYwNiAzLjc2My0xMS4wMyAyLjY4LTIuNTM1IDYuNDU0LTMuMjA2IDkuNTg5LTEuNzA0IDAuODczMSAwLjQxODIgMS45MzcgMS4xMzIgMi4zNjUgMS41ODcgMC40Mjc0IDAuNDU0OCAwLjg2NzQgMC44MjcgMC45Nzc3IDAuODI3IDAuMTEwMyAwIDAuMjM2OS0wLjU2NTYgMC4yODEyLTEuMjU3bDAuMDgwNjQtMS4yNTcgNi43NTEtMC4xNDgyLTAuMDY4MTIgMTYuNzQtMC4wNjgxMiAxNi43NC0zLjA0OCAwLjA3NGMtMi4xNDYgMC4wNTIxLTMuMTQ0LTAuMDIyMy0zLjM3My0wLjI1MTR6bS0zLjE4My0xMy4zNWMzLjc0OS0xLjkxNSA0LjA5LTEwLjgyIDAuNTE4Mi0xMy41NS0xLjMtMC45OTE2LTMuNTQzLTEuMTE0LTQuNzk4LTAuMjYwNy0xLjg0NyAxLjI1NS0yLjkxNyAzLjc0Ny0yLjkxNyA2Ljc5NSAwIDUuNTY4IDMuNDQ5IDguOTMgNy4xOTYgNy4wMTV6bS0xMzUuMiA2LjY2OWMtMS4zMjItMS4zMjktMi4xNTgtMi4zNzMtMi4wNzQtMi41OSAwLjE1MDctMC4zOTI3IDE3LjI4LTE0LjI0IDE3LjYtMTQuMjMgMC4zOTQ4IDAuMDE0OCA0LjQyNiAzLjA3OCA0LjQyNiAzLjM2MyAwIDAuMzAwMS0xNy4yMiAxNS42OC0xNy41NiAxNS42OC0wLjEwMDIgMC0xLjE3OC0xLjAwMi0yLjM5Ni0yLjIyNnptMTg1LjgtMC4yOTIyYy0yLjI2Mi0wLjQ5MTMtNC4wMjYtMS41MTMtNS43NjktMy4zNDEtMi40NDgtMi41NjYtMy41NjEtNS42ODctMy41NTQtOS45NjMgMC4wMDk5LTUuODQ0IDIuNTEyLTEwLjQzIDYuODYzLTEyLjU3IDEuNjIxLTAuNzk3OSAxLjg5MS0wLjg0NzIgNC42MzctMC44NDcyIDIuNjEyIDAgMy4wNzQgMC4wNzQxIDQuNDM0IDAuNzExMiA0LjE0MiAxLjk0MSA2LjcwMyA3LjA0MiA2LjQ5NyAxMi45NGwtMC4wNzc0NyAyLjIyMi03LjUzMiAwLjA3MDRjLTQuMTQyIDAuMDM4Ny03LjYzNCAwLjE3MzItNy43NiAwLjI5ODktMC4zNjg5IDAuMzY4OSAwLjg1ODUgMi44NzEgMS44MjQgMy43MTkgMi4xMSAxLjg1MiA1LjEwNCAxLjczNSA3Ljk1NS0wLjMxMWwxLjIwOC0wLjg2NzEgMS4wNDYgMS4xOTFjMC41NzU1IDAuNjU0OCAxLjM2MiAxLjU5NCAxLjc0OSAyLjA4N2wwLjcwMjIgMC44OTYzLTEuMTg0IDEuMDZjLTIuMDg4IDEuODctNS40OTIgMy4xMzQtOC4yOTcgMy4wNzktMC41OTg2LTAuMDExNi0xLjgzMi0wLjE4MjYtMi43NDItMC4zODAyem02LjA5Ny0xNS41NGMwLjQwNDItMC4zMDExIDAuNDA5OS0wLjQ1OSAwLjA2MzcyLTEuNzYxLTAuOTM3NS0zLjUyNS00LjE0NS01LjAwMi02LjUyLTMuMDAzLTAuOTM3MyAwLjc4ODctMS40MjIgMS42NzEtMS44NDggMy4zNjItMC4yNjE5IDEuMDQtMC4yNTI5IDEuMjk4IDAuMDUyMjcgMS40OTEgMC41OTQ2IDAuMzc2NSA3LjczMSAwLjI5OTUgOC4yNTItMC4wODl6bS0xMDkuMiAxNS4zMWMtMy41MjEtMS4zMS01LjQ2LTUuMjEzLTQuNjkzLTkuNDQ0IDAuNTM0NS0yLjk0OCAxLjg1My00LjcxNCA0LjM2My01Ljg0MyAxLjc4Ny0wLjgwNDMgNi4wMTUtMS4wMDUgOC4xNDItMC4zODY1IDAuODA1MiAwLjIzNDEgMS41MjIgMC40MjU2IDEuNTkzIDAuNDI1NiAwLjM0NDUgMCAwLjQyNi0wLjk2MjUgMC4xNjQ5LTEuOTQ3LTAuMzI3MS0xLjIzMy0xLjA1NS0yLjEzNS0yLjIyOC0yLjc2LTEuMTg4LTAuNjMzLTQuMTU1LTAuNTM5NS02LjQ2NyAwLjIwMzgtMS4wODggMC4zNDk4LTEuOTg2IDAuNTA5Mi0yLjEwNSAwLjM3MzctMC4yOTM4LTAuMzM0MS0xLjYxNC00LjE5OS0xLjYxNC00LjcyNSAwLTEuMDA2IDQuNTk0LTIuMjgzIDguMzItMi4zMTQgNC4zOTgtMC4wMzYgNy4yNiAxLjA1NiA5LjAwNiAzLjQzNSAxLjgxMSAyLjQ2OSAxLjg1NiAyLjc5NSAxLjg1NiAxMy40MnY5LjUyNWwtMy4wMiAwLjA3NTJjLTEuNjYxIDAuMDQxNC0zLjEyNi0wLjAzMDYtMy4yNTYtMC4xNTk5LTAuMTI5My0wLjEyOTMtMC4yODQ2LTAuNjI1OS0wLjM0NS0xLjEwNC0wLjA2MDQ0LTAuNDc3Ni0wLjE2OS0wLjkyNzUtMC4yNDEzLTAuOTk5OC0wLjA3MjI3LTAuMDcyMy0wLjU1MzcgMC4yMzk0LTEuMDcgMC42OTI2LTEuNjE0IDEuNDE3LTIuNDU1IDEuNzItNS4wMzIgMS44MTMtMS41ODMgMC4wNTcxLTIuNzE0LTAuMDM3OS0zLjM3NC0wLjI4MzR6bTcuODQ0LTUuMjY0YzEuMzczLTAuNzg3IDIuMDEyLTIuMDQyIDIuMDEyLTMuOTUxIDAtMS44ODktMC4zMzEzLTIuMTE2LTMuMzA3LTIuMjY5LTEuODk0LTAuMDk3Ni0yLjIxNC0wLjA0MjktMy4wMzkgMC41MTkyLTEuMjY1IDAuODYxOS0xLjYzMyAxLjY2OC0xLjUxNSAzLjMyIDAuMTUzMSAyLjE0NyAxLjA4NiAyLjkzNyAzLjQ5NSAyLjk2IDAuOTAyOCA4ZS0zIDEuNjUtMC4xNzUzIDIuMzU0LTAuNTc4NXptNjQuNzYgNS4yOTFjLTEuNDYtMC40NjczLTMuMzc4LTIuNDA0LTQuMDY1LTQuMTA3LTAuNi0xLjQ4Ni0wLjYwOTgtMS42NzUtMC42MTAxLTExLjdsLTIuNjVlLTQgLTEwLjE5IDYuNzItMC4xNDc5IDAuMDc5NDIgOC44MDVjMC4wNzA2NCA3LjgzMiAwLjEzMTIgOC45IDAuNTQ3OSA5LjY2MyAxLjM4MSAyLjUyOCA0Ljk5OCAyLjUwOCA2LjM1OC0wLjAzMzkgMC41NjAxLTEuMDQ3IDAuNTg1My0xLjQxNiAwLjY2NzUtOS43NjFsMC4wODU0My04LjY3MyA2LjcwOCAwLjE0NzggMC4wNjg3MyAxMi42N2MwLjA1MDQzIDkuMjk2LTAuMDEyODEgMTIuNzctMC4yMzc1IDEzLjA0LTAuMjM2NyAwLjI4NTItMS4wMDMgMC4zNTIyLTMuMzc2IDAuMjk0OGwtMy4wNy0wLjA3NDItMC4wODI4NS0xLjE5MWMtMC4wNDU1Ny0wLjY1NDgtMC4xODIyLTEuMjkyLTAuMzAzNy0xLjQxNS0wLjEyMTUtMC4xMjM0LTAuNzM5IDAuMjgxMS0xLjM3MiAwLjg5ODktMS42NiAxLjYyLTIuODY5IDIuMDk2LTUuMjUzIDIuMDcxLTEuMDkxLTAuMDExNy0yLjM4MS0wLjE0OC0yLjg2NS0wLjMwMjl6bTUzLjM0IDAuMDg0M2MtMS41NjUtMC40OTczLTIuNTU2LTEuMzYtMy4yOTgtMi44NzFsLTAuNzQwNC0xLjUwOC0wLjE3MzItMTYuMDFoLTEuMDA2Yy0xLjQ1NiAwLTEuNjMyLTAuMzY1My0xLjU0NC0zLjIxNCAwLjA3NDc0LTIuNDE5IDAuMDkxMDMtMi40NzYgMC43Mzc5LTIuNTQ4IDEuOTU5LTAuMjE5MyAxLjg1Mi0wLjAyODQgMS44NTItMy4zMTggMC0xLjk2OSAwLjEwODEtMy4wOTMgMC4zMTc1LTMuMzAyIDAuNDUwMy0wLjQ1MDMgNi4xODctMC40Mzg2IDYuNDggMC4wMTMyMyAwLjExNzcgMC4xODE5IDAuMjczNiAxLjcgMC4zNDY0IDMuMzczbDAuMTMyMyAzLjA0MyA0LjkxMiAwLjE1MjQtMC4wNzUgMi44MzQtMC4wNzUgMi44MzQtNC44OTUgMC4xNTIydjYuNzM3YzAgOC40ODQtMC4xNzQgOC4xODYgNC4zNjYgNy40ODEgMC40OTQ1LTAuMDc2OSAwLjUzNDEgMC4wODczIDAuNjA1IDIuNTA4bDAuMDc1OSAyLjU5LTEuMjY2IDAuNTc4MWMtMS4zODIgMC42MzEtNS4zNzUgMC45MTAyLTYuNzUzIDAuNDcyM3ptLTE1Ni43LTAuMzM1N2MtMC4wNzEyNi0wLjE4NjQtMC4wOTg3LTcuODk5LTAuMDYwOTgtMTcuMTRsMC4wNjg1Ny0xNi44IDcuMTQ0IDAuMDE1NjZjNi42OTcgMC4wMTQ2OCA3LjI1MSAwLjA1Mjg2IDguODY0IDAuNjEwMyA0LjcwNCAxLjYyNiA3LjI3NCA1LjA4MiA3LjYwMyAxMC4yMiAwLjMzNTggNS4yNDktMi4wNDYgOS41NTYtNi4zNTkgMTEuNS0yLjI0OSAxLjAxMy0zLjk3IDEuMzMzLTcuMTc4IDEuMzMzLTEuOTQ1IDAtMi44MTcgMC4xMDEtMy4wMjQgMC4zNTA0LTAuMTgxOSAwLjIxOTItMC4zMTc5IDIuMTc3LTAuMzYzMSA1LjIyNmwtMC4wNzIyOSA0Ljg3NS0zLjI0NiAwLjA3NDNjLTIuNDUgMC4wNTYxLTMuMjc4LTllLTMgLTMuMzc2LTAuMjY0NnptMTMuNS0xNy4xMWMxLjk1My0wLjkwMTIgMy4wNTItMi43MDggMy4wMzEtNC45ODItMC4wMzM2My0zLjY2NC0xLjg0OS01LjI2NC02LjMwMS01LjU1My0zLjYzOS0wLjIzNTgtMy40NzctMC40ODU0LTMuNDc3IDUuMzMzIDAgMi42NzUgMC4wNzIyNyA1LjA1MiAwLjE2MDYgNS4yODIgMC4yNDc2IDAuNjQ1MyA1LjE0MyAwLjU4NDcgNi41ODYtMC4wODE2em0zOS4zMiAxNy4wN2MtMC4yMTYtMC4yNjAyLTAuMjgwNC0zLjg5Ni0wLjIzMDgtMTMuMDNsMC4wNjg3My0xMi42NyAzLjI4Ni0wLjA3NDdjMi40NTEtMC4wNTU3IDMuMzQxIDAuMDExNSAzLjUwMiAwLjI2NDYgMC4xMTg0IDAuMTg2NiAwLjIxNzEgMC45NjQzIDAuMjE5MyAxLjcyOCA0ZS0zIDEuMzYgMC4zNTA1IDEuODUyIDAuNjQ2NiAwLjkxOTQgMC4yMDc1LTAuNjUzOCAxLjk0My0yLjM5NiAyLjg1OS0yLjg3IDAuNDE4My0wLjIxNjMgMS4zNS0wLjQ2MzEgMi4wNjktMC41NDgzbDEuMzA5LTAuMTU1djcuNDM2bC0xLjEyNCAwLjE4NzJjLTEuODcxIDAuMzExNS0zLjA3MyAwLjkyNDItNC4wNDcgMi4wNjItMS41MTQgMS43NjgtMS43MDggMi44OTQtMS43MDggOS45MDIgMCAzLjc1OS0wLjEwNzUgNi4zODgtMC4yNzM5IDYuNjk5LTAuMjQ2MSAwLjQ1OTgtMC41Nzg3IDAuNTExOC0zLjI3NSAwLjUxMTgtMi4yMTIgMC0zLjA4LTAuMDk0OS0zLjMwMS0wLjM2MXptLTExMS01LjYwM2MtMS4wMzUtMS4xNTYtMS42ODUtMi4wOS0xLjU0NS0yLjIyIDAuNzIxOS0wLjY3MzkgOC4xNy01LjgzOSA4LjQxNi01LjgzNiAwLjQwMDQgNWUtMyAzLjk5NSAzLjA4NyAzLjk5NSAzLjQyNiAwIDAuNDE2Mi04LjA2NiA2LjYyNS04LjYwNyA2LjYyNS0wLjI2MDUgMC0xLjI3Ny0wLjg5NzgtMi4yNTktMS45OTV6bS01LjEzMy01LjI2OGMtMS40ODItMS40OTktMS42NTktMS43NzktMS4zMjMtMi4wOTEgMC40ODIzLTAuNDQ4MSAyNC4xNi0xNS43MyAyNC42NC0xNS45MSAwLjM3ODgtMC4xMzc1IDMuNjU4IDEuODQ4IDMuNjU4IDIuMjE1IDAgMC4yNjIyLTI0LjI3IDE3LjI2LTI0Ljg2IDE3LjQxLTAuMjM0NiAwLjA2MDItMS4xMjItMC42MjIyLTIuMTE1LTEuNjI3em0xNS43OS0yLjQxNGMtMC45Nzc1LTAuODExNC0xLjc3Mi0xLjYxNS0xLjc2Ni0xLjc4NiA2ZS0zIC0wLjE3MDkgMC44Njk3LTAuOTEzNiAxLjkxOC0xLjY1MSAxLjA0OS0wLjczNjkgNS43NS00LjEgMTAuNDUtNy40NzQgNC42OTctMy4zNzQgOC43MzQtNi4xMzUgOC45Ny02LjEzNSAwLjYzMjIgMCAzLjgzMyAxLjg1IDMuNzMgMi4xNTctMC4xNDg0IDAuNDQ1Mi0yMC42OSAxNi4zNi0yMS4xMiAxNi4zNi0wLjIyMyAyZS0zIC0xLjIwNS0wLjY2MDUtMi4xODMtMS40NzJ6bS0yMC41Ni0yLjM4M2MtMS4xNjctMS4yMzQtMS4zMzYtMS41MzItMS4wMzEtMS44MSAwLjI2NDQtMC4yNDEgMTQuOTMtOC45MDQgMTYuNy05Ljg2NiAwLjI5My0wLjE1OSAzLjQwMiAyLjA4NCAzLjMwMyAyLjM4Mi0wLjEyODYgMC4zODU5LTE2LjY3IDEwLjc3LTE3LjE2IDEwLjc3LTAuMjMzNiAyLjFlLTQgLTEuMDUzLTAuNjY0MS0xLjgyMS0xLjQ3NnptMzUuNDYgMC4wOTg3Yy0xLjA3My0wLjc3MDEtMS45OTMtMS41MjUtMi4wNDQtMS42NzctMC4wNzIyLTAuMjE3MiA5LjY1Ny04LjMwMyAxMS44Ni05Ljg2IDAuNDI5MS0wLjMwMjcgMC43NjY2LTAuMjAxOSAyLjYwNyAwLjc3ODYgMS4xNjMgMC42MTk1IDIuMTEyIDEuMjUyIDIuMTEgMS40MDYtMC4wMDUzIDAuMzkzNy0xMS41OSAxMC41OC0xMi4xMyAxMC42OC0wLjI0NzkgMC4wNDI1LTEuMzI5LTAuNTUyOC0yLjQwMy0xLjMyM3ptLTM5LjQxLTQuMjg0LTEuNDExLTEuNDI5IDAuNjI2My0wLjQwNTljMC4zNDQ1LTAuMjIzMiA3LjMzNy00LjAzNyAxNS41NC04LjQ3NmwxNC45MS04LjA3IDEuNDI2IDAuNjk5M2MwLjc4NDMgMC4zODQ2IDEuNDI2IDAuODI5NiAxLjQyNiAwLjk4ODggMCAwLjIxNzktMzAuNjYgMTguMTItMzEuMDMgMTguMTItMC4wNDA3IDAtMC43MDktMC42NDMtMS40ODUtMS40Mjl6bTIyLjkzLTcuMjA0Yy0wLjY5MTItMC41MTg4LTEuMjU2LTEuMDgxLTEuMjU1LTEuMjQ5IDcuOWUtNCAtMC4xNjggMi43OTYtMS45NTEgNi4yMTEtMy45NjNsNi4yMDktMy42NTcgMS41OTQgMC44NDk3YzAuODc2OCAwLjQ2NzQgMS41OTQgMC45NCAxLjU5NCAxLjA1IDAgMC4zMTM3LTEyLjE4IDcuOTI5LTEyLjY2IDcuOTItMC4yMzg3LTRlLTMgLTAuOTk5Ni0wLjQzMjUtMS42OTEtMC45NTE0em0xMi40NC0xLjU4MmMtMC44MzY3LTAuNTE3MS0xLjUxOS0xLjA3OS0xLjUxNi0xLjI1IDVlLTMgLTAuMjg4NCA0LjIzNC0zLjEyMSA0LjkyOC0zLjMwMSAwLjMxOS0wLjA4MjYxIDMuMTY1IDEuNDE5IDMuMzk1IDEuNzkxIDAuMDY5MyAwLjExMjItMC4wNzk1IDAuMzg3LTAuMzMwNyAwLjYxMDctMC44NTkzIDAuNzY1LTQuMzg3IDMuMTA0LTQuNjcxIDMuMDk3LTAuMTU2LTAuMDAzOS0wLjk2ODItMC40MzAyLTEuODA1LTAuOTQ3M3oiLz4mI3hhOyA8L2c+JiN4YTs8L3N2Zz4=;" vertex="1" parent="O3O1dc4vRpSWTkktztUF-7">
          <mxGeometry x="52.85000000000002" y="190" width="194.29" height="40" as="geometry" />
        </mxCell>
      </root>
    </mxGraphModel>
  </diagram>
</mxfile>
